<svg xmlns="http://www.w3.org/2000/svg" xmlns:xlink="http://www.w3.org/1999/xlink" version="1.1" baseProfile="full" viewBox="0 0 200 200" width="200" height="200">
<g fill="black">
<path d="M 164.8 79.7 L 164.59274606704713 80.25699481964111 L 163.8 84.3 L 161.9 88.9 L 159.1 92.9 L 155.6 96.1 L 151.4 98.5 L 146.7 100.1 L 141.5 101.0 L 135.8 101.2 L 132.7 101.0 L 106.0 101.0 L 106.0 173.0 L 164.0 173.0 L 174.0 163.0 L 186.0 173.0 L 186.0 177.0 L 14.0 177.0 L 14.0 173.0 L 94.0 173.0 L 94.0 145.0 L 67.2 145.0 L 64.1 145.2 L 58.4 145.0 L 53.2 144.1 L 48.5 142.5 L 44.3 140.1 L 40.8 136.9 L 38.0 132.9 L 36.1 128.3 L 35.1 123.2 L 35.17529411315918 122.99764709472656 L 35.1 122.8 L 36.0 116.8 L 38.0 111.4 L 40.9 106.7 L 44.8 102.9 L 49.4 100.1 L 54.6 98.2 L 60.4 97.2 L 66.7 97.0 L 68.0 97.11304349899292 L 68.0 97.0 L 94.0 97.0 L 94.0 30.0 L 20.0 30.0 L 20.0 26.0 L 158.0 26.0 L 168.0 16.0 L 180.0 26.0 L 180.0 30.0 L 106.0 30.0 L 106.0 55.0 L 133.0 55.0 L 133.0 55.029850769042966 L 134.0 55.0 L 140.1 55.5 L 145.7 56.7 L 150.8 58.6 L 155.2 61.3 L 159.0 64.9 L 161.9 69.2 L 163.8 74.2 L 164.62222223281861 78.72222223281861 L 164.8 79.2 L 164.7528302192688 79.44056606292725 Z M 75.35 101.0 L 73.5 101.1 L 67.1 102.1 L 61.6 103.4 L 57.1 105.1 L 53.6 107.3 L 50.9 109.7 L 49.1 112.4 L 47.9 115.4 L 47.2 119.0 L 47.03058567047119 122.55770063400269 L 47.1 122.7 L 47.1 125.9 L 47.6 128.6 L 48.6 131.1 L 50.1 133.3 L 52.5 135.4 L 55.6 137.4 L 59.6 139.1 L 64.6 140.4 L 67.70909090042115 141.0 L 94.0 141.0 L 94.0 101.0 Z M 106.0 59.0 L 106.0 97.0 L 132.19090909957885 97.0 L 135.3 96.4 L 140.3 95.1 L 144.3 93.4 L 147.4 91.4 L 149.8 89.3 L 151.3 87.1 L 152.3 84.6 L 152.8 81.9 L 152.8 80.2 L 152.7 76.6 L 152.1 73.5 L 151.0 70.7 L 149.2 68.1 L 146.6 65.7 L 143.1 63.6 L 138.7 61.6 L 133.3 60.0 L 128.5307692527771 59.0 Z " />
</g>
</svg>
