<svg xmlns="http://www.w3.org/2000/svg" xmlns:xlink="http://www.w3.org/1999/xlink" version="1.1" baseProfile="full" viewBox="0 0 200 200" width="200" height="200">
<g fill="black">
<path d="M 84.0 18.0 L 87.0 20.0 L 84.0 21.8 L 84.0 182.0 L 72.0 188.0 L 72.0 142.0 L 17.0 142.0 L 17.0 138.0 L 69.04888887405396 138.0 L 26.22666664123535 97.0 L 26.0 97.0 L 26.0 96.78297872543335 L 25.6 96.4 L 26.0 95.970370388031 L 26.0 93.0 L 72.0 93.0 L 72.0 58.0 L 21.0 58.0 L 21.0 54.0 L 72.0 54.0 L 72.0 16.0 Z M 126.0 18.0 L 129.0 20.0 L 126.0 21.8 L 126.0 54.0 L 158.0 54.0 L 168.0 44.0 L 180.0 54.0 L 180.0 58.0 L 126.0 58.0 L 126.0 93.0 L 174.0 93.0 L 174.0 96.0777777671814 L 174.3 96.4 L 174.0 96.67551021575927 L 174.0 97.0 L 173.64666662216186 97.0 L 129.00222225189208 138.0 L 162.0 138.0 L 172.0 128.0 L 184.0 138.0 L 184.0 142.0 L 126.0 142.0 L 126.0 182.0 L 114.0 188.0 L 114.0 16.0 Z M 126.0 97.0 L 126.0 135.37755098342896 L 167.7888889312744 97.0 Z M 31.955555534362794 97.0 L 72.0 135.340425491333 L 72.0 97.0 Z " />
</g>
</svg>
